# xmcd
#
# Track frame offsets: 
#        150
#        16097
#        25115
#        34630
#        45744
#        58198
#        67425
#        78491
#        90479
#        103057
#        113364
#        123324
#        133799
#        145052
#        158354
#        167851
#        178778
#        191271
#        202436
#        215315
#
# Disc length: 3016 seconds
#
# Revision: 0
# Processed by: cddbd v1.5.2PL0 Copyright (c) Steve Scherf et al.
# Submitted via: ExactAudioCopyFreeDBPlugin 1.0
#
DISCID=140bc614
DTITLE=Various Artist - Northern Soul All Nighter [One Day Music]
DYEAR=2016
DGENRE=Soul
TTITLE0=Al Wilson - The Snake
TTITLE1=The Tams - Disillusioned
TTITLE2=Maureen Gray - Today's the Day
TTITLE3=The Showmen - The Wrong Girl
TTITLE4=The Temptations - Check Yourself
TTITLE5=The Delacardos - Hold Back the Tears
TTITLE6=Ronnie Love - Chills and Fever
TTITLE7=Irma Thomas - Somebody Told You
TTITLE8=Jerry Butler - Find Another Girl
TTITLE9=Sam Cooke - Sugar Dumpling
TTITLE10=The O'Jays - Can't Take It
TTITLE11=Ada Ray - Give Our Love a Chance
TTITLE12=The "5" Royales - Catch the Teardrop
TTITLE13=Donnie Elbert - What Can I Do
TTITLE14=Maxine Brown - Am I Falling in Love
TTITLE15=Dee Dee Sharp - Baby Cakes
TTITLE16=Harvey Fuqua - Any Way You Wanta
TTITLE17=Solomon Burke - Cry to Me
TTITLE18=Jimmy Radcliffe - The Forgotten Man
TTITLE19=The Charmaines - What Kind of Girl
EXTD=
EXTT0=
EXTT1=
EXTT2=
EXTT3=
EXTT4=
EXTT5=
EXTT6=
EXTT7=
EXTT8=
EXTT9=
EXTT10=
EXTT11=
EXTT12=
EXTT13=
EXTT14=
EXTT15=
EXTT16=
EXTT17=
EXTT18=
EXTT19=
PLAYORDER=
